<svg width="70" height="70" viewBox="0 0 70 70" fill="none" xmlns="http://www.w3.org/2000/svg">
<rect width="70" height="70" rx="15" fill="#149211" fill-opacity="0.28"/>
<path d="M34.5729 46.9583C34.4521 46.9582 34.3323 46.937 34.2188 46.8958C33.9997 46.8156 33.814 46.6643 33.6912 46.466C33.5684 46.2676 33.5158 46.0339 33.5417 45.8021L34.3438 38.4167H28.2083C28.0191 38.417 27.8334 38.3657 27.6711 38.2684C27.5088 38.171 27.376 38.0313 27.2872 37.8643C27.1983 37.6972 27.1566 37.5091 27.1665 37.3201C27.1765 37.1311 27.2378 36.9484 27.3438 36.7917L35.5625 24.5C35.6925 24.3076 35.883 24.1642 36.1038 24.0925C36.3246 24.0208 36.563 24.0249 36.7813 24.1042C36.991 24.182 37.1701 24.3254 37.2921 24.513C37.414 24.7006 37.4723 24.9225 37.4583 25.1458L36.6563 32.5833H42.7917C42.9809 32.583 43.1666 32.6343 43.3289 32.7316C43.4912 32.829 43.624 32.9687 43.7128 33.1357C43.8017 33.3028 43.8434 33.4909 43.8335 33.6799C43.8235 33.8689 43.7622 34.0515 43.6563 34.2083L35.4375 46.5C35.342 46.6414 35.2131 46.7571 35.0624 46.837C34.9116 46.9169 34.7435 46.9586 34.5729 46.9583ZM30.1563 36.3333H35.5C35.6454 36.3337 35.789 36.3644 35.9218 36.4236C36.0546 36.4828 36.1734 36.5692 36.2708 36.6771C36.3691 36.7865 36.4432 36.9154 36.488 37.0554C36.5329 37.1955 36.5477 37.3434 36.5313 37.4896L36.0625 41.8125L40.8438 34.6667H35.5C35.353 34.6676 35.2075 34.6373 35.073 34.578C34.9385 34.5186 34.8182 34.4315 34.7198 34.3222C34.6214 34.213 34.5472 34.0842 34.5022 33.9443C34.4571 33.8044 34.4422 33.6565 34.4583 33.5104L34.9271 29.1875L30.1563 36.3333Z" fill="#149211"/>
</svg>
