<svg class="feature_icon" width="48" height="35" viewBox="0 0 48 35" fill="none"
    xmlns="http://www.w3.org/2000/svg">
    <path d="M42.393 8.53564C41.1766 8.52335 40.0049 8.99349 39.1342 9.84302C38.2635 10.6925 37.7647 11.8522 37.747 13.0686C37.7501 13.7086 37.8911 14.3405 38.1603 14.9211C38.4295 15.5018 38.8206 16.0176 39.3071 16.4336L33.4471 18.4888L25.1081 8.80566C26.0034 8.50693 26.7831 7.93646 27.3388 7.17358C27.8945 6.41071 28.1983 5.49331 28.2081 4.54956C28.1828 3.33432 27.6824 2.17743 26.814 1.3269C25.9457 0.476377 24.7785 0 23.563 0C22.3475 0 21.1804 0.476377 20.3121 1.3269C19.4437 2.17743 18.9432 3.33432 18.918 4.54956C18.9277 5.48395 19.2253 6.39274 19.7702 7.15186C20.3151 7.91097 21.0809 8.48368 21.9631 8.79175L13.611 18.4917L7.7531 16.4368C8.23917 16.0206 8.62989 15.5045 8.89873 14.9238C9.16757 14.3432 9.30822 13.7116 9.31108 13.0718C9.33412 12.195 9.10852 11.3296 8.66045 10.5757C8.21238 9.82172 7.56009 9.2099 6.77898 8.81104C5.99787 8.41217 5.11986 8.2424 4.24639 8.32153C3.37291 8.40067 2.53965 8.72555 1.84295 9.2583C1.14624 9.79105 0.614525 10.5101 0.309254 11.3323C0.00398245 12.1545 -0.0623783 13.0462 0.117848 13.9045C0.298073 14.7629 0.717494 15.5526 1.32769 16.1826C1.93788 16.8126 2.71394 17.2571 3.56609 17.4646V29.7556C3.57345 29.8376 3.59015 29.9184 3.61602 29.9966C3.58308 30.1233 3.56636 30.2538 3.56609 30.3848C3.56609 34.7968 21.485 34.9268 23.528 34.9268C25.571 34.9268 43.49 34.7978 43.49 30.3848C43.4893 30.2539 43.4725 30.1234 43.44 29.9966C43.4676 29.9189 43.4845 29.8379 43.49 29.7556V17.4646C44.5889 17.2244 45.5587 16.5828 46.2094 15.6653C46.8601 14.7478 47.1449 13.6204 47.0082 12.5039C46.8715 11.3874 46.323 10.3621 45.4701 9.62866C44.6173 8.89526 43.5214 8.50653 42.397 8.53857L42.393 8.53564ZM21.174 4.55176C21.1625 4.07755 21.2926 3.61062 21.5477 3.21069C21.8027 2.81076 22.1712 2.49591 22.606 2.3064C23.0408 2.11688 23.5223 2.06132 23.9889 2.14673C24.4555 2.23214 24.8861 2.45463 25.2256 2.78589C25.5652 3.11715 25.7982 3.542 25.8951 4.00635C25.9919 4.4707 25.9482 4.95345 25.7695 5.39282C25.5907 5.8322 25.2851 6.20831 24.8915 6.47314C24.498 6.73798 24.0345 6.8795 23.5601 6.87964C22.9354 6.88605 22.3335 6.64481 21.8863 6.2085C21.4391 5.77218 21.183 5.17647 21.174 4.55176ZM13.584 20.8276C13.801 20.9026 14.0353 20.9113 14.2573 20.8525C14.4792 20.7938 14.6786 20.6701 14.83 20.4976L23.5301 10.3977L32.23 20.4976C32.3812 20.6702 32.5804 20.7938 32.8022 20.8528C33.0239 20.9117 33.2581 20.9033 33.475 20.8286L41.2331 18.1038V28.0408C36.3481 25.9188 25.124 25.8406 23.533 25.8406C21.942 25.8406 10.7141 25.9198 5.83306 28.0408V18.1038L13.584 20.8276ZM23.527 32.7166C14.827 32.7166 9.27802 31.7057 6.97002 30.8547C6.61895 30.7373 6.28322 30.578 5.97002 30.3806C6.69202 29.8596 9.03109 29.1487 12.9361 28.6487C19.9715 27.844 27.0756 27.844 34.111 28.6487C38.011 29.1487 40.3561 29.8596 41.0761 30.3806C40.7654 30.5794 40.4312 30.7388 40.0811 30.8547C37.7791 31.7037 32.235 32.7166 23.527 32.7166ZM2.28008 13.0686C2.26895 12.5945 2.39939 12.1279 2.65471 11.7283C2.91003 11.3286 3.27866 11.0139 3.71355 10.8247C4.14844 10.6355 4.62977 10.5801 5.09624 10.6658C5.56271 10.7514 5.99313 10.9743 6.33245 11.3057C6.67176 11.637 6.90458 12.0618 7.00127 12.5261C7.09797 12.9904 7.05412 13.4731 6.87529 13.9124C6.69647 14.3516 6.39074 14.7277 5.99724 14.9924C5.60374 15.2572 5.14033 15.3986 4.66607 15.3987C4.04091 15.4054 3.43856 15.1638 2.99126 14.7271C2.54396 14.2903 2.28825 13.6937 2.28008 13.0686ZM42.393 15.3987C41.935 15.3875 41.4906 15.2414 41.1152 14.9788C40.7398 14.7162 40.4501 14.3487 40.2825 13.9224C40.1149 13.496 40.0768 13.0297 40.1729 12.5818C40.269 12.1339 40.4952 11.7241 40.8229 11.4041C41.1507 11.084 41.5656 10.8677 42.0157 10.7822C42.4658 10.6968 42.931 10.7459 43.3533 10.9236C43.7756 11.1013 44.1361 11.3997 44.3897 11.7812C44.6433 12.1628 44.7788 12.6105 44.7791 13.0686C44.7704 13.6935 44.5144 14.2895 44.0672 14.7261C43.62 15.1626 43.0179 15.4041 42.393 15.3977V15.3987Z" fill="none"/>
</svg>