<svg width="130" height="30" viewBox="0 0 893 156" fill="none" xmlns="http://www.w3.org/2000/svg">
<path d="M362.31 63.3L345.05 33.35C342.51 28.94 345.69 23.43 350.78 23.43H351C353.37 23.43 355.56 24.7 356.74 26.75L369.66 49.26C370.88 51.39 373.94 51.4 375.19 49.29L388.55 26.67C389.74 24.65 391.91 23.42 394.25 23.42C399.4 23.42 402.58 29.04 399.92 33.45L381.9 63.34C380.66 65.4 380.63 67.98 381.84 70.07L401.39 103.88C403.94 108.29 400.76 113.81 395.66 113.81H395.48C393.11 113.81 390.91 112.54 389.73 110.47L374.4 83.62C373.27 81.65 370.44 81.63 369.28 83.58L353.27 110.57C352.08 112.58 349.92 113.81 347.58 113.81H347.57C342.42 113.81 339.24 108.19 341.9 103.78L362.24 70.03C363.49 67.96 363.52 65.39 362.31 63.3Z" fill="#589DB2"/>
<path d="M20.41 20.17C24.25 20.17 27.36 23.28 27.36 27.12V39.6C27.36 57.8 32.61 71.83 42.96 81.31C52.14 89.71 65.02 94.16 80.21 94.16C126.19 94.16 133.06 59.98 133.06 39.6V27.13C133.06 23.29 136.17 20.18 140.01 20.18C143.85 20.18 146.96 23.29 146.96 27.13V39.6C146.96 64 139.4 82.39 124.49 94.25C110.14 105.67 92.48 108.06 80.2 108.06C61.47 108.06 45.34 102.35 33.56 91.56C20.42 79.51 13.46 61.54 13.46 39.6V27.13C13.46 23.29 16.57 20.17 20.41 20.17Z" fill="#599DB2"/>
<path d="M52.8799 20.15H107.56C113.48 20.15 118.27 24.94 118.27 30.86C118.27 56.56 104.4 71.3 80.2199 71.3C56.0399 71.3 42.1699 56.56 42.1699 30.86C42.1699 24.94 46.9599 20.15 52.8799 20.15ZM98.8199 34.06H61.4899C58.4799 34.06 56.2799 36.83 56.8699 39.77C59.2499 51.61 66.9499 57.4 80.2199 57.4C89.1099 57.4 100.52 55.37 103.58 39.79C104.16 36.81 101.84 34.06 98.8199 34.06Z" fill="#D47629"/>
<path d="M80.2199 94.15C104.4 94.15 118.27 108.89 118.27 134.59V135.38C118.27 138.99 115.32 141.94 111.71 141.94C107.67 141.94 104.36 138.63 104.36 134.59C104.36 110.8 90.5799 108.05 80.2199 108.05C63.9699 108.05 56.0699 116.73 56.0699 134.59V135.38C56.0699 138.99 53.1199 141.94 49.5099 141.94C45.4699 141.94 42.1599 138.63 42.1599 134.59C42.1699 108.89 56.0399 94.15 80.2199 94.15Z" fill="#599DB2"/>
<path d="M190.87 22.83C203.91 22.83 214.24 23.99 224.44 31.61C239.29 42.71 241.87 58.59 241.87 68.15C241.87 83.13 235.54 96.17 223.67 104.56C213.21 111.92 203.27 113.21 190.62 113.21H177.7C174.49 113.21 171.89 110.61 171.89 107.4V28.64C171.89 25.43 174.49 22.83 177.7 22.83H190.87ZM185.83 94.48C185.83 97.69 188.43 100.29 191.64 100.29C198.74 100.29 207.78 99.9 215.65 93.83C223.14 88.15 227.4 78.73 227.4 68.14C227.4 57.94 223.4 47.74 215.78 42.06C207.9 36.12 198.48 35.73 191.64 35.73C188.43 35.73 185.83 38.33 185.83 41.54V94.48Z" fill="#589DB2"/>
<path d="M277.37 22.83C290.41 22.83 300.74 23.99 310.94 31.61C325.79 42.71 328.37 58.59 328.37 68.15C328.37 83.13 322.04 96.17 310.17 104.56C299.71 111.92 289.77 113.21 277.12 113.21H264.2C260.99 113.21 258.39 110.61 258.39 107.4V28.64C258.39 25.43 260.99 22.83 264.2 22.83H277.37ZM272.33 94.48C272.33 97.69 274.93 100.29 278.14 100.29C285.24 100.29 294.28 99.9 302.15 93.83C309.64 88.15 313.9 78.73 313.9 68.14C313.9 57.94 309.9 47.74 302.28 42.06C294.4 36.12 284.98 35.73 278.14 35.73C274.93 35.73 272.33 38.33 272.33 41.54V94.48Z" fill="#589DB2"/>
<path d="M477.12 37.8H459.21C455.73 37.8 452.9 40.63 452.9 44.11V52.68C452.9 56.16 455.73 58.99 459.21 58.99H476.11C479.59 58.99 482.42 61.81 482.42 65.29V65.3C482.42 68.78 479.6 71.61 476.11 71.61H459.21C455.73 71.61 452.9 74.43 452.9 77.91V107.17C452.9 110.65 450.07 113.47 446.6 113.47H445.58C442.1 113.47 439.28 110.65 439.28 107.17V31.49C439.28 28.01 442.1 25.19 445.58 25.19H477.11C480.59 25.19 483.41 28.01 483.41 31.49C483.42 34.97 480.6 37.8 477.12 37.8Z" fill="#D47629"/>
<path d="M513.46 31.49V107.16C513.46 110.64 510.63 113.47 507.15 113.47H506.14C502.66 113.47 499.83 110.65 499.83 107.16V31.49C499.83 28.01 502.66 25.19 506.14 25.19H507.15C510.63 25.19 513.46 28.01 513.46 31.49Z" fill="#D47629"/>
<path d="M561.48 44.11V107.17C561.48 110.65 558.65 113.48 555.17 113.48H554.16C550.68 113.48 547.85 110.66 547.85 107.17V44.11C547.85 40.63 545.03 37.8 541.54 37.8H533.98C530.5 37.8 527.67 34.98 527.67 31.5C527.67 28.02 530.49 25.19 533.98 25.19H575.35C578.83 25.19 581.66 28.01 581.66 31.5C581.66 34.98 578.83 37.8 575.35 37.8H567.79C564.3 37.8 561.48 40.62 561.48 44.11Z" fill="#D47629"/>
<path d="M595.46 107.17V35.12C595.46 29.43 602.4 26.65 606.32 30.76L648.41 74.84C652.34 78.95 659.27 76.17 659.27 70.48V31.48C659.27 28 662.09 25.17 665.58 25.17H666.59C670.07 25.17 672.9 27.99 672.9 31.48V103.02C672.9 108.71 665.96 111.49 662.03 107.38L619.95 63.3C616.02 59.19 609.09 61.97 609.09 67.66V107.16C609.09 110.64 606.26 113.47 602.78 113.47H601.77C598.28 113.47 595.46 110.65 595.46 107.17Z" fill="#D47629"/>
<path d="M734.01 37.8H711.56C708.08 37.8 705.26 40.63 705.26 44.11V52.68C705.26 56.16 708.09 58.99 711.56 58.99H733C736.48 58.99 739.3 61.81 739.3 65.29V65.3C739.3 68.78 736.48 71.61 733 71.61H711.56C708.08 71.61 705.26 74.43 705.26 77.91V94.56C705.26 98.04 708.09 100.86 711.56 100.86H734.01C737.49 100.86 740.32 103.68 740.32 107.17C740.32 110.65 737.49 113.47 734.01 113.47H697.94C694.46 113.47 691.63 110.65 691.63 107.17V31.49C691.63 28.01 694.45 25.19 697.94 25.19H734.01C737.49 25.19 740.32 28.01 740.32 31.49C740.32 34.97 737.49 37.8 734.01 37.8Z" fill="#D47629"/>
<path d="M796.34 39.78C795.61 39.07 794.76 38.39 793.8 37.77C792.67 37.04 791.35 36.55 790.02 36.33C781.37 34.88 773.88 38.73 773.88 46.5C773.88 52.69 779.18 55.71 783.33 57.35L792.16 60.88C800.73 64.24 812.75 70.78 813.08 86.31C813.47 103.93 796.99 117.45 779.56 114.9C773.21 113.97 767.9 111.15 763.65 106.29C762.03 104.45 760.25 101.96 758.82 98.79C756.52 93.69 759.27 88.46 764.73 87.28L765.61 87.09C767.67 86.65 769.61 88.01 770.06 90.07C770.69 92.92 771.87 95.52 773.37 97.46C776.52 101.62 780.18 102.62 784.72 102.62C794.94 102.62 799.48 95.32 799.48 87.87C799.48 79.04 792.29 75.25 786.75 72.86L778.3 69.2C769.34 65.3 760.26 59.24 760.26 46.88C760.26 32.62 772.36 23.42 786.11 23.42C795.32 23.42 800.49 26.57 803.76 29.47C805.7 31.17 808.51 32.96 809.03 37.1C809.21 38.5 808.88 39.27 808.1 39.81L806.27 40.91C803.3 42.67 798.81 42.19 796.34 39.78Z" fill="#D47629"/>
<path d="M865.78 39.78C865.04 39.07 864.2 38.39 863.24 37.77C862.11 37.04 860.79 36.55 859.46 36.33C850.81 34.88 843.32 38.73 843.32 46.5C843.32 52.69 848.62 55.71 852.77 57.35L861.6 60.88C870.17 64.24 882.18 70.78 882.52 86.31C882.91 103.93 866.43 117.45 849 114.9C842.65 113.97 837.34 111.15 833.09 106.29C831.47 104.45 829.68 101.96 828.26 98.79C825.96 93.69 828.7 88.46 834.17 87.28L835.05 87.09C837.11 86.65 839.05 88.01 839.5 90.07C840.13 92.92 841.31 95.52 842.81 97.46C845.96 101.62 849.62 102.62 854.16 102.62C864.38 102.62 868.92 95.32 868.92 87.87C868.92 79.04 861.73 75.25 856.18 72.86L847.74 69.2C838.78 65.3 829.7 59.24 829.7 46.88C829.7 32.62 841.8 23.42 855.55 23.42C864.75 23.42 869.93 26.57 873.2 29.47C875.14 31.17 877.95 32.96 878.47 37.1C878.65 38.5 878.32 39.27 877.54 39.81L875.72 40.91C872.74 42.67 868.25 42.19 865.78 39.78Z" fill="#D47629"/>
</svg>
