<svg width="26" height="27" viewBox="0 0 26 27" fill="none" xmlns="http://www.w3.org/2000/svg">
<path d="M18.0589 17.6251C19.6705 15.865 20.6275 13.6039 20.769 11.2216C20.9106 8.83932 20.2281 6.48088 18.8362 4.54232C17.4443 2.60377 15.4278 1.20318 13.1252 0.575765C10.8227 -0.0516554 8.37437 0.132305 6.19143 1.09675C4.0085 2.0612 2.22389 3.74739 1.1373 5.87217C0.0507149 7.99695 -0.271678 10.4309 0.224264 12.7653C0.720206 15.0997 2.00428 17.1923 3.86085 18.6919C5.71741 20.1914 8.0334 21.0064 10.4199 21.0001C12.6723 21.0031 14.8638 20.2691 16.6599 18.9101L24.4079 26.7171C24.4934 26.8061 24.5958 26.8772 24.7091 26.9261C24.8225 26.9751 24.9444 27.0009 25.0679 27.0021C25.1916 27.0024 25.314 26.9773 25.4276 26.9283C25.5411 26.8793 25.6434 26.8074 25.7279 26.7171C25.9018 26.5362 25.999 26.295 25.999 26.0441C25.999 25.7931 25.9018 25.5519 25.7279 25.371L18.0589 17.6251ZM1.88589 10.5001C1.89873 8.81477 2.41021 7.17101 3.35586 5.776C4.30151 4.38098 5.63899 3.29715 7.1997 2.66114C8.76042 2.02513 10.4745 1.86542 12.1258 2.20213C13.7772 2.53884 15.2919 3.3569 16.479 4.55319C17.6661 5.74948 18.4725 7.27044 18.7965 8.92433C19.1204 10.5782 18.9475 12.291 18.2995 13.8468C17.6515 15.4026 16.5574 16.7316 15.1551 17.6665C13.7529 18.6014 12.1052 19.1002 10.4199 19.1C8.14843 19.0892 5.97409 18.1775 4.3741 16.5652C2.77412 14.9528 1.87924 12.7715 1.88589 10.5001Z" fill="#E8E8E8"/>
</svg>
